<svg class="railroad-diagram" height="122" viewBox="0 0 496.0 122" width="496.0">
<g transform="translate(.5 .5)">
<g>
<path d="M20 21v20m10 -20v20m-10 -10h20" /></g><path d="M40 31h10" /><g class="terminal ">
<path d="M50 31h0.0" /><path d="M95.5 31h0.0" /><rect height="22" rx="10" ry="10" width="45.5" x="50" y="20"></rect><text x="72.75" y="35">Edg</text></g><path d="M95.5 31h10" /><g>
<path d="M105.5 31h0.0" /><path d="M191.0 31h0.0" /><path d="M105.5 31h20" /><g>
<path d="M125.5 31h8.5" /><path d="M162.5 31h8.5" /><g class="terminal ">
<path d="M134.0 31h0.0" /><path d="M162.5 31h0.0" /><rect height="22" rx="10" ry="10" width="28.5" x="134" y="20"></rect><text x="148.25" y="35">e</text></g></g><path d="M171.0 31h20" /><path d="M105.5 31a10 10 0 0 1 10 10v10a10 10 0 0 0 10 10" /><g>
<path d="M125.5 61h0.0" /><path d="M171.0 61h0.0" /><g class="terminal ">
<path d="M125.5 61h0.0" /><path d="M171.0 61h0.0" /><rect height="22" rx="10" ry="10" width="45.5" x="125.5" y="50"></rect><text x="148.25" y="65">iOS</text></g></g><path d="M171.0 61a10 10 0 0 0 10 -10v-10a10 10 0 0 1 10 -10" /><path d="M105.5 31a10 10 0 0 1 10 10v40a10 10 0 0 0 10 10" /><g>
<path d="M125.5 91h8.5" /><path d="M162.5 91h8.5" /><g class="terminal ">
<path d="M134.0 91h0.0" /><path d="M162.5 91h0.0" /><rect height="22" rx="10" ry="10" width="28.5" x="134" y="80"></rect><text x="148.25" y="95">A</text></g></g><path d="M171.0 91a10 10 0 0 0 10 -10v-40a10 10 0 0 1 10 -10" /></g><path d="M191.0 31h10" /><g class="terminal ">
<path d="M201.0 31h0.0" /><path d="M229.5 31h0.0" /><rect height="22" rx="10" ry="10" width="28.5" x="201" y="20"></rect><text x="215.25" y="35">/</text></g><path d="M229.5 31h10" /><path d="M239.5 31h10" /><g class="non-terminal ">
<path d="M249.5 31h0.0" /><path d="M329.0 31h0.0" /><rect height="22" width="79.5" x="249.5" y="20"></rect><text x="289.25" y="35">Group 1</text></g><path d="M329.0 31h10" /><path d="M339.0 31h10" /><g>
<path d="M349.0 31h0.0" /><path d="M446.0 31h0.0" /><path d="M349.0 31h10" /><g>
<path d="M359.0 31h0.0" /><path d="M436.0 31h0.0" /><g>
<path d="M359.0 31h0.0" /><path d="M436.0 31h0.0" /><path d="M359.0 31h20" /><g class="terminal ">
<path d="M379.0 31h0.0" /><path d="M416.0 31h0.0" /><rect height="22" rx="10" ry="10" width="37" x="379" y="20"></rect><text x="397.5" y="35">\d</text></g><path d="M416.0 31h20" /></g></g><path d="M436.0 31h10" /><path d="M359.0 31a10 10 0 0 0 -10 10v0a10 10 0 0 0 10 10" /><g>
<path d="M359.0 51h77.0" /></g><path d="M436.0 51a10 10 0 0 0 10 -10v0a10 10 0 0 0 -10 -10" /></g><path d="M446.0 31h10" /><path d="M 456.0 31 h 20 m -10 -10 v 20 m 10 -20 v 20"></path></g></svg>